<svg width="116" height="28" viewBox="0 0 116 28" fill="none" xmlns="http://www.w3.org/2000/svg">
<path d="M7.30249 8.98893H0V3.58179H21.2961V8.98893H14.0276V27.69H7.30249V8.98893Z" fill="#18201D"/>
<path d="M30.4462 8.71341C33.5031 8.71341 35.8354 9.42517 37.443 10.8487C39.0507 12.2493 39.8546 14.4075 39.8546 17.3235V27.69H33.8427V25.2792C32.9144 27.0931 31.1029 28 28.4083 28C26.9818 28 25.7477 27.7474 24.7061 27.2423C23.6645 26.7372 22.872 26.0599 22.3286 25.2103C21.8078 24.3378 21.5474 23.3506 21.5474 22.2485C21.5474 20.4805 22.2154 19.1144 23.5513 18.1501C24.8873 17.1628 26.9478 16.6691 29.733 16.6691H33.4012C33.288 14.6945 31.986 13.7073 29.4952 13.7073C28.6121 13.7073 27.7177 13.8565 26.812 14.155C25.9062 14.4305 25.1364 14.8208 24.5023 15.326L22.3286 10.8831C23.3475 10.1943 24.5816 9.66626 26.0308 9.29889C27.5026 8.90857 28.9744 8.71341 30.4462 8.71341ZM30.2085 23.8672C30.9557 23.8672 31.6124 23.6835 32.1785 23.3161C32.7445 22.9487 33.1521 22.4092 33.4012 21.6974V20.0787H30.6161C28.7367 20.0787 27.797 20.7101 27.797 21.9729C27.797 22.5469 28.0121 23.0061 28.4423 23.3506C28.8725 23.695 29.4612 23.8672 30.2085 23.8672Z" fill="#18201D"/>
<path d="M50.6191 28C49.0794 28 47.5622 27.8278 46.0678 27.4834C44.5733 27.116 43.3732 26.6453 42.4675 26.0713L44.4035 21.5941C45.2413 22.1222 46.2376 22.5469 47.3924 22.8684C48.5472 23.1669 49.6907 23.3161 50.8229 23.3161C51.8645 23.3161 52.6004 23.2128 53.0306 23.0062C53.4835 22.7765 53.7099 22.4551 53.7099 22.0418C53.7099 21.6285 53.4382 21.3415 52.8948 21.1808C52.374 20.9971 51.5362 20.8249 50.3813 20.6642C48.9095 20.4805 47.6528 20.2394 46.6112 19.941C45.5923 19.6425 44.7092 19.0914 43.9619 18.2878C43.2147 17.4842 42.8411 16.3592 42.8411 14.9127C42.8411 13.7187 43.1921 12.6626 43.894 11.7442C44.596 10.8028 45.6149 10.0681 46.9509 9.53997C48.3095 8.98893 49.9285 8.71341 51.8079 8.71341C53.1438 8.71341 54.4685 8.85117 55.7818 9.12669C57.0951 9.40221 58.1933 9.79254 59.0764 10.2977L57.1404 14.7405C55.5101 13.8221 53.7439 13.3629 51.8418 13.3629C50.8229 13.3629 50.0757 13.4891 49.6001 13.7417C49.1246 13.9713 48.8869 14.2813 48.8869 14.6716C48.8869 15.1078 49.1473 15.4178 49.6681 15.6015C50.1889 15.7622 51.0493 15.9344 52.2494 16.1181C53.7665 16.3477 55.0232 16.6117 56.0195 16.9102C57.0159 17.2087 57.8763 17.7597 58.6009 18.5633C59.3481 19.344 59.7217 20.4461 59.7217 21.8696C59.7217 23.0406 59.3708 24.0968 58.6688 25.0381C57.9669 25.9565 56.9253 26.6798 55.544 27.2079C54.1854 27.736 52.5438 28 50.6191 28Z" fill="#18201D"/>
<path d="M70.858 21.1464L68.956 23.1095V27.69H62.5026V2.1353H68.956V15.5326L75.5452 9.02337H83.1874L75.5452 17.0135L83.8327 27.69H76.0207L70.858 21.1464Z" fill="#18201D"/>
<path d="M85.7209 9.02337H92.1743V27.69H85.7209V9.02337ZM88.9476 6.95695C87.7702 6.95695 86.8191 6.62402 86.0946 5.95818C85.37 5.29233 85.0077 4.46576 85.0077 3.47847C85.0077 2.49118 85.37 1.66462 86.0946 0.998769C86.8191 0.332923 87.7702 0 88.9476 0C90.1251 0 91.0761 0.321443 91.8007 0.964329C92.5253 1.58426 92.8876 2.38786 92.8876 3.37515C92.8876 4.40836 92.5253 5.26937 91.8007 5.95818C91.0761 6.62402 90.1251 6.95695 88.9476 6.95695Z" fill="#18201D"/>
<path d="M105.607 28C103.637 28 101.859 27.5867 100.274 26.7601C98.6891 25.9336 97.4438 24.7856 96.538 23.3161C95.6549 21.8467 95.2134 20.182 95.2134 18.3223C95.2134 16.4854 95.6549 14.8323 96.538 13.3629C97.4438 11.8934 98.6778 10.7569 100.24 9.95326C101.825 9.12669 103.614 8.71341 105.607 8.71341C107.599 8.71341 109.388 9.12669 110.973 9.95326C112.558 10.7569 113.792 11.8934 114.675 13.3629C115.558 14.8093 116 16.4625 116 18.3223C116 20.182 115.558 21.8467 114.675 23.3161C113.792 24.7856 112.558 25.9336 110.973 26.7601C109.388 27.5867 107.599 28 105.607 28ZM105.607 22.7995C106.739 22.7995 107.667 22.4092 108.392 21.6285C109.116 20.8249 109.479 19.7228 109.479 18.3223C109.479 16.9446 109.116 15.8655 108.392 15.0849C107.667 14.3042 106.739 13.9139 105.607 13.9139C104.475 13.9139 103.546 14.3042 102.822 15.0849C102.097 15.8655 101.735 16.9446 101.735 18.3223C101.735 19.7228 102.097 20.8249 102.822 21.6285C103.546 22.4092 104.475 22.7995 105.607 22.7995Z" fill="#18201D"/>
</svg>
